<svg width="76" height="61" fill="none" xmlns="http://www.w3.org/2000/svg"><path d="M75.688 46.44c0 4.416-1.44 7.968-4.32 10.656-2.88 2.496-6.528 3.744-10.944 3.744-5.184 0-9.504-1.728-12.96-5.184-3.264-3.456-4.896-8.544-4.896-15.264 0-6.336.864-11.712 2.592-16.128 1.92-4.608 4.128-8.448 6.624-11.52 2.688-3.264 5.376-5.856 8.064-7.776 2.88-1.92 5.376-3.264 7.488-4.032l7.2 10.08c-4.224 2.112-7.68 4.992-10.368 8.64-2.496 3.456-3.744 7.872-3.744 13.248.768-.192 1.824-.288 3.168-.288 3.84 0 6.816 1.344 8.928 4.032 2.112 2.688 3.168 5.952 3.168 9.792zm-42.048 0c0 4.416-1.44 7.968-4.32 10.656-2.88 2.496-6.528 3.744-10.944 3.744-5.184 0-9.504-1.728-12.96-5.184C2.152 52.2.52 47.112.52 40.392c0-6.336.864-11.712 2.592-16.128 1.92-4.608 4.128-8.448 6.624-11.52 2.688-3.264 5.376-5.856 8.064-7.776 2.88-1.92 5.376-3.264 7.488-4.032l7.2 10.08c-4.224 2.112-7.68 4.992-10.368 8.64-2.496 3.456-3.744 7.872-3.744 13.248.768-.192 1.824-.288 3.168-.288 3.84 0 6.816 1.344 8.928 4.032 2.112 2.688 3.168 5.952 3.168 9.792z" fill="#CCC"/></svg>